<?xml version="1.0" encoding="UTF-8" standalone="no"?>
<svg width="171px" height="91px" viewBox="0 0 171 91" version="1.1" xmlns="http://www.w3.org/2000/svg" xmlns:xlink="http://www.w3.org/1999/xlink">
    <!-- Generator: Sketch 40.3 (33839) - http://www.bohemiancoding.com/sketch -->
    <title>logo</title>
    <desc>Created with Sketch.</desc>
    <defs>
        <polygon id="path-1" points="28.4002791 31.1988357 28.4002791 0.671105217 0.37755814 0.671105217 0.37755814 31.1988357 28.4002791 31.1988357"></polygon>
    </defs>
    <g id="Symbols" stroke="none" stroke-width="1" fill="none" fill-rule="evenodd">
        <g id="top-menu" transform="translate(1.000000, 0.000000)">
            <g id="logo">
                <polygon id="Fill-1" fill="#88BC28" points="95.0937302 23.8354322 94.272986 23.9367191 95.8678233 27.0987713 97.4634512 23.9367191 96.6474512 23.8354322 96.6474512 23.1596583 99.2622884 23.1596583 99.2622884 23.8354322 98.6186605 23.9367191 96.3596372 28.1852322 96.3596372 30.090693 97.2120093 30.2394583 97.2120093 30.9104843 94.4817302 30.9104843 94.4817302 30.2394583 95.334893 30.090693 95.334893 28.1053104 93.116986 23.9367191 92.478893 23.8354322 92.478893 23.1596583 95.0937302 23.1596583"></polygon>
                <polygon id="Fill-2" fill="#88BC28" points="99.9680651 30.9104052 99.9680651 30.2393791 100.820437 30.0906139 100.820437 23.9849096 99.9680651 23.835353 99.9680651 23.1595791 105.816065 23.1595791 105.816065 25.0231009 104.932065 25.0231009 104.84746 23.9849096 101.851507 23.9849096 101.851507 26.4917617 104.763647 26.4917617 104.763647 27.3170922 101.851507 27.3170922 101.851507 30.0906139 104.910716 30.0906139 104.99374 29.0524226 105.872995 29.0524226 105.872995 30.9104052"></polygon>
                <path d="M109.158344,27.83326 L111.574716,27.83326 L110.392623,24.5058252 L110.360995,24.5058252 L109.158344,27.83326 Z M106.715879,30.2396165 L107.280437,30.1596948 L109.942716,23.1590252 L110.825926,23.1590252 L113.441553,30.1596948 L114.001367,30.2396165 L114.001367,30.9106426 L111.815088,30.9106426 L111.815088,30.2396165 L112.390716,30.1383296 L111.887833,28.7116078 L108.839693,28.7116078 L108.320995,30.1383296 L108.896623,30.2396165 L108.896623,30.9106426 L106.715879,30.9106426 L106.715879,30.2396165 Z" id="Fill-3" fill="#88BC28"></path>
                <g id="Group-143" transform="translate(0.000000, 0.696348)">
                    <path d="M116.527172,25.9287487 L117.882428,25.9287487 C118.457265,25.9287487 118.876335,25.8163835 119.137265,25.5932357 C119.398986,25.3692965 119.529451,25.0432791 119.529451,24.6136009 C119.529451,24.2052878 119.404521,23.8824357 119.153079,23.6450443 C118.901637,23.4068617 118.513405,23.2881661 117.9868,23.2881661 L116.527172,23.2881661 L116.527172,25.9287487 Z M117.9868,22.4683748 C118.817033,22.4683748 119.452753,22.6559139 119.895544,23.0302009 C120.338335,23.4044878 120.560521,23.935453 120.560521,24.6246791 C120.560521,25.0005487 120.45694,25.3344791 120.251358,25.6248878 C120.044986,25.9160878 119.750847,26.1447748 119.367358,26.31174 C119.782474,26.4502183 120.081358,26.67574 120.2648,26.9883052 C120.447451,27.3000791 120.538381,27.6854443 120.538381,28.1428183 L120.538381,28.7655748 C120.538381,29.0037574 120.568428,29.179427 120.628521,29.2925835 C120.687033,29.4065313 120.785079,29.4737922 120.921079,29.4951574 L121.17173,29.5276009 L121.17173,30.214453 L120.617451,30.214453 C120.216567,30.214453 119.931916,30.0720183 119.762707,29.78794 C119.593498,29.504653 119.508893,29.1596443 119.508893,28.7552878 L119.508893,28.1538965 C119.508893,27.73134 119.387916,27.3926617 119.147544,27.1370704 C118.907172,26.8814791 118.584567,26.7532878 118.180521,26.7532878 L116.527172,26.7532878 L116.527172,29.3938704 L117.379544,29.543427 L117.379544,30.214453 L114.644521,30.214453 L114.644521,29.543427 L115.496893,29.3938704 L115.496893,23.2881661 L114.644521,23.1394009 L114.644521,22.4683748 L115.496893,22.4683748 L117.9868,22.4683748 Z" id="Fill-4" fill="#88BC28"></path>
                    <path d="M130.308716,26.2745487 C130.308716,25.373253 130.096019,24.6381313 129.672995,24.0676009 C129.249181,23.498653 128.662484,23.2137835 127.912902,23.2137835 C127.194949,23.2137835 126.634344,23.4994443 126.231879,24.0707661 C125.828623,24.6420878 125.626995,25.3772096 125.626995,26.2745487 L125.626995,26.3972009 C125.626995,27.3056183 125.828623,28.0446965 126.231879,28.6144357 C126.634344,29.1841748 127.194949,29.4690443 127.912902,29.4690443 C128.673553,29.4690443 129.262623,29.1849661 129.680902,28.6168096 C130.099181,28.0494443 130.308716,27.3095748 130.308716,26.3972009 L130.308716,26.2745487 Z M131.338995,26.3972009 C131.338995,27.5256009 131.020344,28.4625052 130.384623,29.2079139 C129.748112,29.9533226 128.924205,30.326027 127.912902,30.326027 C126.930065,30.326027 126.13146,29.9533226 125.517088,29.2079139 C124.903507,28.4625052 124.596716,27.5256009 124.596716,26.3972009 L124.596716,26.285627 C124.596716,25.1603922 124.903507,24.2234878 125.517088,23.4741226 C126.13146,22.7255487 126.930065,22.3512617 127.912902,22.3512617 C128.924205,22.3512617 129.748112,22.7255487 130.384623,23.4741226 C131.020344,24.2234878 131.338995,25.1603922 131.338995,26.285627 L131.338995,26.3972009 Z" id="Fill-6" fill="#88BC28"></path>
                    <polygon id="Fill-8" fill="#88BC28" points="132.112535 29.5433478 132.964907 29.3945826 132.964907 23.288087 132.112535 23.1393217 132.112535 22.4627565 137.996116 22.4627565 137.996116 24.3262783 137.117651 24.3262783 137.034628 23.288087 133.995186 23.288087 133.995186 25.9603217 136.939744 25.9603217 136.939744 26.7856522 133.995186 26.7856522 133.995186 29.3945826 134.847558 29.5433478 134.847558 30.2143739 132.112535 30.2143739"></polygon>
                    <path d="M97.7549814,48.1683574 L103.82754,48.1683574 C105.76554,48.1683574 107.21726,47.6128617 108.17954,46.5018704 C109.142609,45.3900878 109.624935,43.9894791 109.624935,42.2984617 C109.624935,40.606653 109.142609,39.1949661 108.17954,38.0626096 C107.21726,36.930253 105.76554,36.3644704 103.82754,36.3644704 L97.7549814,36.3644704 L97.7549814,48.1683574 Z M103.82754,33.1145835 C106.878842,33.1145835 109.254098,33.9533661 110.950935,35.6309313 C112.646981,37.3077052 113.494609,39.5162357 113.494609,42.2557313 C113.494609,45.0237139 112.646981,47.2393661 110.950935,48.9026878 C109.254098,50.5660096 106.878842,51.3976704 103.82754,51.3976704 L97.7549814,51.3976704 L97.7549814,60.4137922 L100.958098,61.0001487 L100.958098,63.6423139 L90.6798186,63.6423139 L90.6798186,61.0001487 L93.8837256,60.4137922 L93.8837256,36.3644704 L90.6798186,35.7773226 L90.6798186,33.1145835 L93.8837256,33.1145835 L103.82754,33.1145835 Z" id="Fill-10" fill="#1D4898"></path>
                    <polygon id="Fill-12" fill="#1D4898" points="116.24687 63.6420765 116.24687 60.9999113 119.449986 60.4135548 119.449986 36.364233 116.24687 35.7778765 116.24687 33.1143461 138.217195 33.1143461 138.217195 40.4529026 134.896265 40.4529026 134.581567 36.364233 123.321242 36.364233 123.321242 46.2397113 134.26766 46.2397113 134.26766 49.4895983 123.321242 49.4895983 123.321242 60.4135548 134.817195 60.4135548 135.131893 56.3248852 138.433847 56.3248852 138.433847 63.6420765"></polygon>
                    <g id="Group-16" transform="translate(141.534884, 32.443478)">
                        <mask id="mask-2" fill="white">
                            <use xlink:href="#path-1"></use>
                        </mask>
                        <g id="Clip-15"></g>
                        <polygon id="Fill-14" fill="#1D4898" mask="url(#mask-2)" points="28.4006744 0.671105217 28.4006744 3.33384435 25.1967674 3.92099217 25.1967674 31.1988357 21.3263023 31.1988357 7.56974419 7.63220957 7.45193023 7.6741487 7.45193023 27.9703139 10.6550465 28.5566704 10.6550465 31.1988357 0.37755814 31.1988357 0.37755814 28.5566704 3.57988372 27.9703139 3.57988372 3.92099217 0.37755814 3.33384435 0.37755814 0.671105217 3.57988372 0.671105217 7.45193023 0.671105217 21.2076977 24.2163661 21.3263023 24.1752183 21.3263023 3.92099217 18.1223953 3.33384435 18.1223953 0.671105217 25.1967674 0.671105217"></polygon>
                    </g>
                    <path d="M132.279293,78.5995487 L132.279293,77.4671922 L136.20906,73.023227 C136.9112,72.2232183 137.387991,71.5893835 137.637851,71.12014 C137.888502,70.6501052 138.013433,70.1697835 138.013433,69.6775922 C138.013433,69.0682878 137.837107,68.5555226 137.486037,68.1385052 C137.134177,67.7222791 136.670828,67.5141661 136.093619,67.5141661 C135.264177,67.5141661 134.654549,67.7294009 134.264735,68.1598704 C133.874921,68.59034 133.679619,69.1996443 133.679619,69.9877835 L132.122735,69.9877835 L132.10613,69.9379313 C132.078456,68.8870791 132.420828,68.0031922 133.131665,67.287853 C133.843293,66.5725139 134.830874,66.2148443 136.093619,66.2148443 C137.175293,66.2148443 138.036363,66.5345313 138.676037,67.1746965 C139.315712,67.8148617 139.635944,68.6291139 139.635944,69.6182443 C139.635944,70.2837313 139.443014,70.9492183 139.054781,71.6147052 C138.66813,72.2801922 138.12334,72.9979052 137.419619,73.769427 L134.264735,77.2662009 L134.280549,77.30814 L138.540037,77.30814 L138.672084,75.9083226 L140.047898,75.9083226 L140.047898,78.5995487 L132.279293,78.5995487 Z" id="Fill-17" fill="#1D4898"></path>
                    <path d="M147.808358,70.7004322 C147.808358,69.6440409 147.620963,68.84878 147.244591,68.3146496 C146.868219,67.7813104 146.320265,67.5146409 145.60073,67.5146409 C144.892265,67.5146409 144.351428,67.7813104 143.977428,68.3146496 C143.604219,68.84878 143.417614,69.6440409 143.417614,70.7004322 L143.417614,74.2810843 C143.417614,75.3374757 143.607381,76.1359017 143.986126,76.6755713 C144.36566,77.2144496 144.90887,77.4842843 145.617335,77.4842843 C146.33687,77.4842843 146.88166,77.2160322 147.252498,76.6795278 C147.623335,76.1430235 147.808358,75.3430148 147.808358,74.2810843 L147.808358,70.7004322 Z M149.43166,73.9463626 C149.43166,75.5052322 149.09087,76.7001017 148.410079,77.53018 C147.728498,78.3610496 146.798637,78.775693 145.617335,78.775693 C144.441567,78.775693 143.510916,78.359467 142.824591,77.5262235 C142.137474,76.69298 141.795102,75.499693 141.795102,73.9463626 L141.795102,71.0525626 C141.795102,69.4984409 142.135102,68.3035713 142.816684,67.4679539 C143.497474,66.6323365 144.425753,66.2145278 145.60073,66.2145278 C146.781242,66.2145278 147.715056,66.6323365 148.402172,67.4679539 C149.088498,68.3035713 149.43166,69.4984409 149.43166,71.0525626 L149.43166,73.9463626 Z" id="Fill-19" fill="#1D4898"></path>
                    <polygon id="Fill-21" fill="#1D4898" points="151.416707 77.5431574 153.270893 77.30814 153.270893 68.1598704 151.383498 68.1938965 151.383498 67.1620357 154.892614 66.3905139 154.892614 77.30814 156.738102 77.5431574 156.738102 78.5995487 151.416707 78.5995487"></polygon>
                    <path d="M166.105577,67.6897565 C164.655437,69.4456609 163.677344,71.0013652 163.168926,72.3560783 C162.661298,73.7123739 162.294414,75.3551217 162.069065,77.2827391 L161.937809,78.5994696 L160.314507,78.5994696 L160.446553,77.2827391 C160.676647,75.3598696 161.124181,73.6411565 161.789158,72.1258087 C162.453344,70.6104609 163.361856,69.1323043 164.515484,67.6897565 L159.506414,67.6897565 L159.383065,69.0911565 L157.999344,69.0911565 L157.999344,66.3904348 L166.105577,66.3904348 L166.105577,67.6897565 Z" id="Fill-23" fill="#1D4898"></path>
                    <path d="M70.8948233,51.452587 L71.0845907,50.7269609 C71.1383581,50.4959 75.5654744,51.1194478 79.9981256,51.6931435 L88.847614,52.8587348 C89.4967767,52.9900913 89.8850093,53.7861435 89.6936605,54.6296739 C89.5165442,55.3877435 89.323614,56.1418565 89.1101256,56.8904304 C88.8713349,57.7205087 88.1502186,58.2087435 87.5255674,57.9919261 C87.523986,57.9927174 83.3989163,56.2898304 79.2192884,54.710387 C75.0554744,53.1095783 70.827614,51.6789 70.8948233,51.452587" id="Fill-25" fill="#1D4898"></path>
                    <path d="M70.8948233,51.452587 L71.0845907,50.7269609 C71.1383581,50.4959 75.5654744,51.1194478 79.9981256,51.6931435 L88.847614,52.8587348 C89.4967767,52.9900913 89.8850093,53.7861435 89.6936605,54.6296739 C89.5165442,55.3877435 89.323614,56.1418565 89.1101256,56.8904304 C88.8713349,57.7205087 88.1502186,58.2087435 87.5255674,57.9919261 C87.523986,57.9927174 83.3989163,56.2898304 79.2192884,54.710387 C75.0554744,53.1095783 70.827614,51.6789 70.8948233,51.452587 L70.8948233,51.452587 Z" id="Stroke-27" stroke="#1D4898" stroke-width="0.32"></path>
                    <path d="M71.5376605,46.7194 L71.5843116,46.1346261 C71.5938,45.947087 75.0594279,45.8339304 78.5226837,45.7025739 L85.4468233,45.4651826 C85.957614,45.4810087 86.3561256,45.9850696 86.3276605,46.5888348 C86.2944512,47.1332522 86.2604512,47.6776696 86.2066837,48.2205043 C86.1560791,48.822687 85.6761256,49.2531565 85.1732419,49.1858957 C85.1724512,49.186687 81.767707,48.549687 78.3574279,47.9799478 C74.9392419,47.3951739 71.5234279,46.9045652 71.5376605,46.7194" id="Fill-29" fill="#BED030"></path>
                    <path d="M69.8465953,54.9562452 L70.0324093,54.5234017 C70.0885488,54.3833409 72.7666419,55.2007583 75.4463163,56.0118452 L80.7945953,57.6561757 C81.1796651,57.8017757 81.3638977,58.2670626 81.1962698,58.6912017 C81.0373395,59.0710278 80.8863163,59.4540191 80.717107,59.8275148 C80.5360372,60.2461148 80.0766419,60.4360278 79.7018512,60.257193 L74.7599907,57.6427235 C72.2819442,56.3418191 69.7904558,55.0963061 69.8465953,54.9562452" id="Fill-31" fill="#88BC28"></path>
                    <path d="M68.0200837,58.7234078 L68.3063163,58.2668252 C68.3972465,58.1196426 71.283293,59.5249991 74.1677581,60.9137383 L79.9279907,63.713373 C80.3383628,63.9468078 80.4585488,64.52446 80.1762698,64.9913296 C79.9279907,65.41626 79.6615256,65.8293209 79.3982233,66.2447557 C79.0977581,66.6989643 78.541107,66.8469383 78.151293,66.573147 C78.1520837,66.5747296 75.625014,64.6020078 73.0694791,62.6751817 C70.5234326,60.7412339 67.9252,58.8682165 68.0200837,58.7234078" id="Fill-33" fill="#1977B5"></path>
                    <path d="M63.6013488,64.3189583 C63.7887442,64.1527843 63.9753488,63.9834452 64.1556279,63.808567 C64.3319535,63.6479322 67.712186,66.5686365 71.1256279,69.4513583 L77.9351163,75.2334191 C78.4032093,75.6900017 78.309907,76.5778452 77.6876279,77.17528 C77.1333488,77.7189061 76.5624651,78.2443322 75.9797209,78.7563061 C75.3321395,79.3236713 74.4647442,79.3450365 74.0567442,78.8251496 C74.0575349,78.8283148 71.4964651,75.15508 68.8405116,71.5704713 C66.1987907,67.9644974 63.4273953,64.4803843 63.6013488,64.3189583" id="Fill-35" fill="#1D4898"></path>
                    <path d="M63.6013488,64.3189583 C63.7887442,64.1527843 63.9753488,63.9834452 64.1556279,63.808567 C64.3319535,63.6479322 67.712186,66.5686365 71.1256279,69.4513583 L77.9351163,75.2334191 C78.4032093,75.6900017 78.309907,76.5778452 77.6876279,77.17528 C77.1333488,77.7189061 76.5624651,78.2443322 75.9797209,78.7563061 C75.3321395,79.3236713 74.4647442,79.3450365 74.0567442,78.8251496 C74.0575349,78.8283148 71.4964651,75.15508 68.8405116,71.5704713 C66.1987907,67.9644974 63.4273953,64.4803843 63.6013488,64.3189583 L63.6013488,64.3189583 Z" id="Stroke-37" stroke="#1D4898" stroke-width="0.32"></path>
                    <path d="M66.7120326,60.685447 L67.0646837,60.22016 C67.1777535,60.0721861 70.147614,61.8534122 73.1309163,63.6203948 L79.0801256,67.1717687 C79.499986,67.4613861 79.5664047,68.1055078 79.2113814,68.5961165 C78.8919395,69.0400383 78.5622186,69.4744643 78.2269628,69.9041426 C77.8505907,70.3789252 77.2235674,70.4873339 76.8353349,70.1557774 C76.8353349,70.1565687 74.3169628,67.7715774 71.7590558,65.4419774 C69.2114279,63.1012991 66.5942186,60.8294643 66.7120326,60.685447" id="Fill-39" fill="#BED030"></path>
                    <path d="M60.8150093,66.711467 L61.2048233,66.44638 C61.3289628,66.3585452 63.1444047,68.495067 64.9614279,70.6260496 L68.5749163,74.8998843 C68.8231953,75.2338148 68.7235674,75.720467 68.3543116,75.9863452 L67.3398465,76.6858583 C66.9587302,76.9351191 66.4724512,76.8512409 66.2542186,76.4999017 L63.5018,71.6278409 C62.1204512,69.2001191 60.6892884,66.7961365 60.8150093,66.711467" id="Fill-41" fill="#88BC28"></path>
                    <path d="M57.2417674,68.9044878 L57.7288372,68.673427 C57.886186,68.6022096 59.5553488,71.3337922 61.2387442,74.0637922 L64.581814,79.5301226 C64.8016279,79.9463487 64.592093,80.5002617 64.1026512,80.7408183 C63.6630233,80.9623835 63.2186512,81.1712878 62.771907,81.3762357 C62.2753488,81.6001748 61.7226512,81.4165922 61.5439535,80.9797922 C61.5431628,80.9797922 60.4788837,77.955427 59.3655814,74.9555922 C58.2625581,71.9510096 57.0836279,68.9717487 57.2417674,68.9044878" id="Fill-43" fill="#1977B5"></path>
                    <path d="M50.5289814,71.2150965 L51.2682837,71.0892791 C51.5007488,71.0425922 52.7642837,75.3330443 54.0760512,79.6084617 L56.6774465,88.1537574 C56.8268884,88.800253 56.2623302,89.4831487 55.4162837,89.6572357 C54.6532605,89.8099574 53.8878651,89.9460617 53.119307,90.0608009 C52.2661442,90.1889922 51.5236791,89.730827 51.4627953,89.0724617 C51.461214,89.0700878 51.3022837,84.6110878 51.0097256,80.1481313 C50.7424698,75.6907139 50.2957256,71.2491226 50.5289814,71.2150965" id="Fill-45" fill="#1D4898"></path>
                    <path d="M50.5289814,71.2150965 L51.2682837,71.0892791 C51.5007488,71.0425922 52.7642837,75.3330443 54.0760512,79.6084617 L56.6774465,88.1537574 C56.8268884,88.800253 56.2623302,89.4831487 55.4162837,89.6572357 C54.6532605,89.8099574 53.8878651,89.9460617 53.119307,90.0608009 C52.2661442,90.1889922 51.5236791,89.730827 51.4627953,89.0724617 C51.461214,89.0700878 51.3022837,84.6110878 51.0097256,80.1481313 C50.7424698,75.6907139 50.2957256,71.2491226 50.5289814,71.2150965 L50.5289814,71.2150965 Z" id="Stroke-47" stroke="#1D4898" stroke-width="0.32"></path>
                    <path d="M55.0870372,69.844953 L55.6334093,69.6455443 C55.8065721,69.5782835 57.3484326,72.6873183 58.9084791,75.7852748 L62.0032698,81.9859357 C62.2033163,82.4607183 61.908386,83.0304574 61.3462,83.2575617 C60.8354093,83.4530139 60.3254093,83.6492574 59.8090837,83.8257183 C59.2389907,84.0306661 58.6475488,83.7711183 58.5004791,83.2844661 C58.4996884,83.2844661 57.6694558,79.91984 56.7728047,76.5773704 C55.8872233,73.2214487 54.9146651,69.9114226 55.0870372,69.844953" id="Fill-49" fill="#BED030"></path>
                    <path d="M46.8966744,71.7127478 L47.3695116,71.7024609 C47.5213256,71.6953391 47.889,74.4728174 48.2614186,77.2495043 L48.9825349,82.8028783 C49.0102093,83.2143565 48.663093,83.5736087 48.2084419,83.5973478 C47.7980698,83.6084261 47.3876977,83.6329565 46.9773256,83.6321652 C46.5226744,83.6377043 46.1597442,83.3029826 46.1668605,82.8875478 L46.4910465,77.3017304 C46.6452326,74.5068435 46.7456512,71.7190783 46.8966744,71.7127478" id="Fill-51" fill="#88BC28"></path>
                    <path d="M42.6868419,71.6207983 L43.2229349,71.690433 C43.3945163,71.7133809 43.3241442,74.9165809 43.2656326,78.1237374 L43.1248884,84.5309287 C43.0837721,85.0009635 42.6093535,85.35072 42.0677256,85.2905809 C41.5798651,85.2367722 41.0920047,85.1774243 40.6065163,85.103833 C40.0672605,85.031033 39.7035395,84.5689113 39.7881442,84.1067896 C39.7873535,84.1059983 40.523493,80.9882591 41.2050744,77.862607 C41.9000977,74.7314157 42.5160512,71.5962678 42.6868419,71.6207983" id="Fill-53" fill="#1977B5"></path>
                    <path d="M35.7860279,69.9376939 C36.0169116,70.0326504 36.2430512,70.1402678 36.4770977,70.2281026 C36.6969116,70.3159374 35.4428651,74.6158852 34.2433767,78.9174157 L31.8222605,87.5173113 C31.6000744,88.1376939 30.7548186,88.4146504 29.9490977,88.1005026 C29.2232372,87.8187983 28.5060744,87.51652 27.7968186,87.199207 C27.0108651,86.8423287 26.6297488,86.0613113 26.9349581,85.4725809 C26.9333767,85.4733722 29.2097953,81.6260504 31.3707721,77.7154243 C33.5499349,73.8214157 35.5717488,69.8387809 35.7860279,69.9376939" id="Fill-55" fill="#1D4898"></path>
                    <path d="M35.7860279,69.9376939 C36.0169116,70.0326504 36.2430512,70.1402678 36.4770977,70.2281026 C36.6969116,70.3159374 35.4428651,74.6158852 34.2433767,78.9174157 L31.8222605,87.5173113 C31.6000744,88.1376939 30.7548186,88.4146504 29.9490977,88.1005026 C29.2232372,87.8187983 28.5060744,87.51652 27.7968186,87.199207 C27.0108651,86.8423287 26.6297488,86.0613113 26.9349581,85.4725809 C26.9333767,85.4733722 29.2097953,81.6260504 31.3707721,77.7154243 C33.5499349,73.8214157 35.5717488,69.8387809 35.7860279,69.9376939 L35.7860279,69.9376939 Z" id="Stroke-57" stroke="#1D4898" stroke-width="0.32"></path>
                    <path d="M40.3622698,71.2459574 C40.5504558,71.2926443 40.7394326,71.3361661 40.9299907,71.3733574 C41.1126419,71.4105487 40.7323163,74.8653835 40.3733395,78.3123052 L39.6316651,85.2021922 C39.5438977,85.7078357 38.9872465,86.036227 38.3926419,85.9159487 C37.8565488,85.8114965 37.3228279,85.6943835 36.7922698,85.5661922 C36.2032,85.42534 35.8434326,84.8983313 35.983386,84.4037661 C35.9825953,84.4029748 37.0982698,81.1261835 38.1483163,77.8224878 C39.2125953,74.5267052 40.1812,71.2063922 40.3622698,71.2459574" id="Fill-59" fill="#BED030"></path>
                    <path d="M32.4676279,68.3952835 L32.8693023,68.6421704 C33.0005581,68.7173443 31.8089767,71.2542661 30.6229302,73.7911878 L28.2310698,78.8547443 C28.031814,79.2163704 27.5471163,79.3279443 27.1509767,79.1032139 C26.7983256,78.8919357 26.4417209,78.6877791 26.0953953,78.4670052 C25.7095349,78.2248661 25.5853953,77.746127 25.8154884,77.400327 L29.1079535,72.8780226 C30.7470698,70.6125183 32.3371628,68.318527 32.4676279,68.3952835" id="Fill-61" fill="#88BC28"></path>
                    <path d="M28.994014,66.0445557 L29.4059674,66.3943122 C29.538014,66.5066774 27.7399674,69.1638774 25.9553628,71.8242426 L22.3671767,77.1315209 C22.0785721,77.5042252 21.4879209,77.5429991 21.0680605,77.1964078 C20.6829907,76.8893817 20.3121535,76.5673209 19.9389442,76.2492165 C19.5325256,75.8867991 19.4668977,75.3131035 19.7910837,74.9665122 C19.790293,74.9673035 22.1007116,72.742947 24.3676419,70.4845643 C26.6416884,68.2380513 28.8651302,65.9290252 28.994014,66.0445557" id="Fill-63" fill="#1977B5"></path>
                    <path d="M24.0822791,60.8725113 C24.2190698,61.082207 24.3613953,61.2887374 24.5076744,61.4928939 C24.6413023,61.69072 21.2753023,64.6248765 17.9393488,67.5993896 L11.2563721,73.5270504 C10.7384651,73.9266591 9.87423256,73.7074678 9.37055814,73.0063722 C8.91116279,72.3804504 8.47153488,71.7394939 8.04772093,71.0890417 C7.57646512,70.3681635 7.68083721,69.5024765 8.25172093,69.1732939 C8.24934884,69.1732939 12.2455349,67.158633 16.1673953,65.0363548 C20.1090233,62.9291113 23.9478605,60.6770591 24.0822791,60.8725113" id="Fill-65" fill="#1D4898"></path>
                    <path d="M24.0822791,60.8725113 C24.2190698,61.082207 24.3613953,61.2887374 24.5076744,61.4928939 C24.6413023,61.69072 21.2753023,64.6248765 17.9393488,67.5993896 L11.2563721,73.5270504 C10.7384651,73.9266591 9.87423256,73.7074678 9.37055814,73.0063722 C8.91116279,72.3804504 8.47153488,71.7394939 8.04772093,71.0890417 C7.57646512,70.3681635 7.68083721,69.5024765 8.25172093,69.1732939 C8.24934884,69.1732939 12.2455349,67.158633 16.1673953,65.0363548 C20.1090233,62.9291113 23.9478605,60.6770591 24.0822791,60.8725113 L24.0822791,60.8725113 Z" id="Stroke-67" stroke="#1D4898" stroke-width="0.32"></path>
                    <path d="M27.236214,64.4689104 L27.6473767,64.8843452 C27.7794233,65.0157017 25.5947256,67.7077191 23.4242605,70.4123974 L19.0667256,75.8019713 C18.7211907,76.1778409 18.0767721,76.1509365 17.640307,75.7299626 C17.2481209,75.3509278 16.8630512,74.96398 16.4866791,74.5699104 C16.0699814,74.1315278 16.052586,73.4929452 16.4352837,73.1566409 C16.4352837,73.1558496 19.1497488,70.9987539 21.8167721,68.7949713 C24.4932837,66.599893 27.110493,64.3312235 27.236214,64.4689104" id="Fill-69" fill="#BED030"></path>
                    <path d="M22.1144698,57.7775617 C22.1800977,57.9207878 22.2488884,58.06164 22.3216326,58.2009096 C22.3904233,58.3362226 20.0191209,59.8302052 17.6517721,61.327353 L12.9123302,64.2994922 C12.5470279,64.4981096 12.0781442,64.3311443 11.8686093,63.9259965 C11.6764698,63.5627878 11.5017256,63.1900835 11.3206558,62.8213357 C11.1285163,62.4082748 11.2811209,61.93824 11.6598651,61.7720661 L16.8697721,59.7399965 C19.467214,58.7176313 22.0504233,57.6406661 22.1144698,57.7775617" id="Fill-71" fill="#88BC28"></path>
                    <path d="M20.460093,53.93388 L20.6174419,54.4482278 C20.6688372,54.6128191 17.7258605,55.8757409 14.7852558,57.1529061 L8.90009302,59.6827061 C8.45651163,59.840967 7.94255814,59.5529322 7.77176744,59.0330452 C7.6175814,58.5661757 7.47051163,58.0969322 7.33530233,57.6237322 C7.17953488,57.10068 7.4467907,56.5784191 7.90302326,56.46368 C7.90302326,56.46368 11.0452558,55.8432974 14.1693023,55.1706887 C17.3052093,54.5075757 20.4126512,53.7684974 20.460093,53.93388" id="Fill-73" fill="#1977B5"></path>
                    <path d="M19.1350419,46.9434974 C19.1437395,47.1943409 19.1405767,47.446767 19.1571814,47.6968191 C19.1690419,47.9350017 14.7379721,48.5759583 10.3298326,49.2651843 L1.50564651,50.6198974 C0.848576744,50.6752887 0.247646512,50.02088 0.199413953,49.1599409 C0.155925581,48.3836713 0.132204651,47.6089843 0.126669767,46.8342974 C0.125088372,45.9749409 0.674623256,45.30708 1.33643721,45.3395235 C1.33327442,45.3379409 5.78332093,45.806393 10.2302047,46.1490278 C14.6794605,46.5146104 19.1326698,46.7061061 19.1350419,46.9434974" id="Fill-75" fill="#1D4898"></path>
                    <path d="M19.1350419,46.9434974 C19.1437395,47.1943409 19.1405767,47.446767 19.1571814,47.6968191 C19.1690419,47.9350017 14.7379721,48.5759583 10.3298326,49.2651843 L1.50564651,50.6198974 C0.848576744,50.6752887 0.247646512,50.02088 0.199413953,49.1599409 C0.155925581,48.3836713 0.132204651,47.6089843 0.126669767,46.8342974 C0.125088372,45.9749409 0.674623256,45.30708 1.33643721,45.3395235 C1.33327442,45.3379409 5.78332093,45.806393 10.2302047,46.1490278 C14.6794605,46.5146104 19.1326698,46.7061061 19.1350419,46.9434974 L19.1350419,46.9434974 Z" id="Stroke-77" stroke="#1D4898" stroke-width="0.32"></path>
                    <path d="M19.8400279,51.6666348 L19.9586326,52.2363739 C20.0005395,52.4167913 16.7025395,53.4992957 13.4156093,54.5992087 L6.84253953,56.7752957 C6.3444,56.9050696 5.81779535,56.5315739 5.67942326,55.9404696 C5.55686512,55.408713 5.43588837,54.8745826 5.33626047,54.337287 C5.21923721,53.7430174 5.55370233,53.1970174 6.05895814,53.1202609 C6.06133023,53.1186783 9.49928372,52.78 12.9411907,52.3701043 C16.382307,51.9760348 19.800493,51.4854261 19.8400279,51.6666348" id="Fill-79" fill="#BED030"></path>
                    <path d="M19.1547302,43.2566522 L19.1009628,43.726687 C19.0851488,43.8786174 16.2821256,43.8532957 13.4830558,43.8327217 L7.89045116,43.7678348 C7.47612558,43.7361826 7.17012558,43.342113 7.21440465,42.8886957 C7.24761395,42.4795913 7.30296279,42.0720696 7.34961395,41.6637565 C7.40891628,41.2119217 7.79556744,40.9001478 8.20277674,40.9650348 L13.6815209,42.0712783 C16.4204977,42.6149043 19.1760791,43.1070957 19.1547302,43.2566522" id="Fill-81" fill="#88BC28"></path>
                    <path d="M19.8392372,39.1220078 C19.7917953,39.2953035 19.7356558,39.4662252 19.6929581,39.6403122 C19.6494698,39.8072774 16.4866791,39.2794774 13.322307,38.7651296 L7.00542326,37.7150687 C6.54128372,37.60666 6.27402791,37.089147 6.40528372,36.558973 C6.53258605,36.0833991 6.65435349,35.6070339 6.79905116,35.1362078 C6.95244651,34.6131557 7.45374884,34.3164165 7.90286512,34.4675557 C7.90365581,34.4675557 10.8766791,35.64106 13.8773767,36.7647122 C16.8717488,37.8994426 19.8835163,38.9566252 19.8392372,39.1220078" id="Fill-83" fill="#1977B5"></path>
                    <path d="M22.4908419,32.5304426 L22.1034,33.173773 C21.9816326,33.3779296 17.913493,31.5239035 13.8295395,29.7189383 L5.67112093,26.0884339 C5.09153953,25.7814078 4.9349814,24.90306 5.36274884,24.1521122 C5.74386512,23.4739643 6.14553953,22.8076861 6.55986512,22.1509035 C7.02400465,21.4244861 7.85107442,21.1593991 8.38953953,21.5447643 C8.38795814,21.5423904 11.8717721,24.3475643 15.4283302,27.0443296 C18.9722372,29.7608774 22.6149814,32.3294513 22.4908419,32.5304426" id="Fill-85" fill="#1D4898"></path>
                    <path d="M22.4908419,32.5304426 L22.1034,33.173773 C21.9816326,33.3779296 17.913493,31.5239035 13.8295395,29.7189383 L5.67112093,26.0884339 C5.09153953,25.7814078 4.9349814,24.90306 5.36274884,24.1521122 C5.74386512,23.4739643 6.14553953,22.8076861 6.55986512,22.1509035 C7.02400465,21.4244861 7.85107442,21.1593991 8.38953953,21.5447643 C8.38795814,21.5423904 11.8717721,24.3475643 15.4283302,27.0443296 C18.9722372,29.7608774 22.6149814,32.3294513 22.4908419,32.5304426 L22.4908419,32.5304426 Z" id="Stroke-87" stroke="#1D4898" stroke-width="0.32"></path>
                    <path d="M20.5380558,36.8779478 C20.4629395,37.0567826 20.4004744,37.2403652 20.3316837,37.4215739 C20.2644744,37.5948696 16.9095442,36.7260174 13.5514512,35.8769478 L6.8415907,34.1558609 C6.35926512,33.9983913 6.10545116,33.3962087 6.31340465,32.8256783 C6.49210233,32.3089565 6.68977674,31.7993565 6.88745116,31.2897565 C7.11675349,30.7287217 7.68368372,30.4454348 8.15335814,30.6551304 C8.15177674,30.6535478 11.2386605,32.2306174 14.3524279,33.7435913 C17.456707,35.2684348 20.6076372,36.7070261 20.5380558,36.8779478" id="Fill-89" fill="#BED030"></path>
                    <path d="M24.4927302,29.4559878 L24.1922651,29.8199878 C24.0973814,29.9394748 21.757707,28.3988052 19.4164512,26.8620922 L14.7497535,23.77284 C14.4184512,23.5227878 14.3781256,23.0282226 14.6572419,22.6673878 C14.9142186,22.3469096 15.1704047,22.02564 15.4360791,21.7122835 C15.7310093,21.3656922 16.2204512,21.3095096 16.5304047,21.5872574 L20.5368698,25.4907617 C22.5436605,27.4349965 24.587614,29.3380835 24.4927302,29.4559878" id="Fill-91" fill="#88BC28"></path>
                    <path d="M27.3137814,26.343313 C27.1746186,26.4580522 27.0449442,26.5838696 26.9097349,26.7025652 C26.7792698,26.816513 24.406386,24.661 22.026386,22.5165652 L17.2845721,18.2094957 C16.9572233,17.8716087 17.0015023,17.279713 17.4047581,16.9133391 C17.7621535,16.5762435 18.1329907,16.2533913 18.5014558,15.9289565 C18.9173628,15.5776174 19.4945721,15.5950261 19.790293,15.9645652 C19.790293,15.9637739 21.6634558,18.5663739 23.5761535,21.1317826 C25.4769907,23.7027304 27.4466186,26.2333217 27.3137814,26.343313" id="Fill-93" fill="#1977B5"></path>
                    <path d="M33.1197163,22.2152365 C32.892786,22.3196887 32.6698093,22.4328452 32.4460419,22.546793 C32.2325535,22.6504539 29.8090651,18.9012539 27.340507,15.1726278 L22.4255302,7.71062783 C22.1037163,7.13930609 22.4452977,6.31714087 23.2099023,5.91594957 C23.8954372,5.54957565 24.5920419,5.20377565 25.2973442,4.87696696 C26.0777628,4.51059304 26.9222279,4.74165391 27.1649721,5.35095826 C27.1657628,5.35016696 28.5874372,9.59472348 30.1269256,13.7815148 C31.6498093,17.9872974 33.3316233,22.109993 33.1197163,22.2152365" id="Fill-95" fill="#1D4898"></path>
                    <path d="M33.1197163,22.2152365 C32.892786,22.3196887 32.6698093,22.4328452 32.4460419,22.546793 C32.2325535,22.6504539 29.8090651,18.9012539 27.340507,15.1726278 L22.4255302,7.71062783 C22.1037163,7.13930609 22.4452977,6.31714087 23.2099023,5.91594957 C23.8954372,5.54957565 24.5920419,5.20377565 25.2973442,4.87696696 C26.0777628,4.51059304 26.9222279,4.74165391 27.1649721,5.35095826 C27.1657628,5.35016696 28.5874372,9.59472348 30.1269256,13.7815148 C31.6498093,17.9872974 33.3316233,22.109993 33.1197163,22.2152365 L33.1197163,22.2152365 Z" id="Stroke-97" stroke="#1D4898" stroke-width="0.32"></path>
                    <path d="M29.1218698,24.8255913 L28.6521953,25.1721826 C28.5043349,25.2869217 26.1504279,22.7405043 23.7822884,20.2075391 L19.0665674,15.1281565 C18.7431721,14.731713 18.8625674,14.0986696 19.3393581,13.7251739 C19.7710791,13.3904522 20.2075442,13.0628522 20.6511256,12.7463304 C21.1429395,12.3942 21.7778698,12.4693739 22.056986,12.895887 C22.0577767,12.8950957 23.8068,15.8901826 25.6095907,18.8433304 C27.4021023,21.8083478 29.2744744,24.7187652 29.1218698,24.8255913" id="Fill-99" fill="#BED030"></path>
                    <path d="M36.4535349,20.7103339 L36.0067907,20.8551426 C35.8628837,20.9042035 34.7234884,18.3380035 33.5825116,15.7828817 L31.3211163,10.6639339 C31.1772093,10.2746122 31.408093,9.82989913 31.839814,9.68350783 C32.2264651,9.54423826 32.6202326,9.4247513 33.0108372,9.29814261 C33.4465116,9.16520348 33.890093,9.38756 34,9.78558609 L35.2627442,15.2352991 C35.9024186,17.9550122 36.5990233,20.6683948 36.4535349,20.7103339" id="Fill-101" fill="#88BC28"></path>
                    <path d="M40.4908372,19.6253765 L39.9586977,19.7060896 C39.7886977,19.7361591 38.9608372,16.6358287 38.1195349,13.5410374 L36.4622326,7.34908087 C36.3689302,6.88300261 36.7294884,6.42483739 37.2655814,6.32434174 C37.7510698,6.24442 38.2349767,6.15816783 38.7228372,6.09565478 C39.2613023,6.01731565 39.7388837,6.3544113 39.7871163,6.82444609 C39.787907,6.82682 39.95,10.0189417 40.169814,13.2181852 C40.376186,16.41822 40.6600465,19.5960983 40.4908372,19.6253765" id="Fill-103" fill="#1977B5"></path>
                    <path d="M47.6217442,19.3027617 C47.3734651,19.2663617 47.122814,19.2449965 46.8729535,19.2173009 C46.6357442,19.1872313 46.6223023,14.7250661 46.5614186,10.2518226 L46.461,1.31404 C46.4989535,0.659631304 47.2287674,0.153987826 48.0866744,0.229161739 C48.859186,0.293257391 49.630907,0.377135652 50.3994651,0.483170435 C51.2534186,0.594744348 51.8385349,1.24836174 51.7136047,1.89327478 C51.7143953,1.89485739 50.6216512,6.22804 49.657,10.5889183 C48.6694186,14.9482139 47.8573721,19.3296661 47.6217442,19.3027617" id="Fill-105" fill="#1D4898"></path>
                    <path d="M47.6217442,19.3027617 C47.3734651,19.2663617 47.122814,19.2449965 46.8729535,19.2173009 C46.6357442,19.1872313 46.6223023,14.7250661 46.5614186,10.2518226 L46.461,1.31404 C46.4989535,0.659631304 47.2287674,0.153987826 48.0866744,0.229161739 C48.859186,0.293257391 49.630907,0.377135652 50.3994651,0.483170435 C51.2534186,0.594744348 51.8385349,1.24836174 51.7136047,1.89327478 C51.7143953,1.89485739 50.6216512,6.22804 49.657,10.5889183 C48.6694186,14.9482139 47.8573721,19.3296661 47.6217442,19.3027617 L47.6217442,19.3027617 Z" id="Stroke-107" stroke="#1D4898" stroke-width="0.32"></path>
                    <path d="M42.8274279,19.3328313 C42.6329163,19.3383704 42.4391953,19.3573617 42.2454744,19.3700226 C42.0588698,19.3811009 41.4603116,15.9634574 40.8427767,12.553727 L39.6314279,5.72951826 C39.5752884,5.22308348 40.0172884,4.74434435 40.6213814,4.69765739 C41.1645907,4.64464 41.7093814,4.61536174 42.2533814,4.58370957 C42.8582651,4.56155304 43.3492884,4.95799652 43.3540326,5.47313565 C43.3540326,5.47076174 43.2022186,8.93825739 43.1168233,12.4002139 C43.0171953,15.8582139 43.0132419,19.3257096 42.8274279,19.3328313" id="Fill-109" fill="#BED030"></path>
                    <path d="M51.2451953,19.8370504 L50.7905442,19.7183548 C50.6442651,19.677207 51.0672884,16.910807 51.4855674,14.1412417 L52.3442651,8.60923304 C52.4320326,8.20804174 52.8684977,7.95086783 53.3104977,8.06402435 C53.7098,8.16056348 54.1083116,8.26185043 54.5036605,8.37342435 C54.9432884,8.49053739 55.1955209,8.92417217 55.0737535,9.31824174 L53.1966372,14.5859548 C52.265986,17.2273287 51.3906837,19.877407 51.2451953,19.8370504" id="Fill-111" fill="#88BC28"></path>
                    <path d="M55.2276233,21.1066983 C55.0647395,21.0299417 54.9010651,20.9563504 54.7358093,20.8882983 C54.5768791,20.8210374 55.5541814,17.7602722 56.5148791,14.7034635 L58.4592047,8.59855043 C58.6323674,8.1562113 59.1858558,7.95759391 59.6887395,8.16966348 C60.1441814,8.3564113 60.592507,8.55819391 61.0400419,8.76235043 C61.5342279,8.99262 61.7579953,9.52595913 61.5429256,9.95088957 C61.5437163,9.94930696 59.954414,12.731533 58.4141349,15.5398722 C56.8635767,18.3387157 55.3841814,21.176333 55.2276233,21.1066983" id="Fill-113" fill="#1977B5"></path>
                    <path d="M61.3783023,24.6814948 C61.1861628,24.5200687 60.9940233,24.3586426 60.7963488,24.2051296 C60.6113256,24.0547817 63.0229535,20.2897557 65.3903023,16.5009904 L70.1439767,8.93612087 C70.5298372,8.40673826 71.4217442,8.37508609 72.1009535,8.9060513 C72.7176977,9.3792513 73.3186279,9.87144261 73.9076977,10.3747122 C74.5600233,10.9365383 74.7047209,11.7927296 74.246907,12.2714687 C74.2500698,12.2698861 70.9805349,15.3251122 67.8090465,18.4650078 C64.617,21.5922426 61.5617442,24.8310513 61.3783023,24.6814948" id="Fill-115" fill="#1D4898"></path>
                    <path d="M61.3783023,24.6814948 C61.1861628,24.5200687 60.9940233,24.3586426 60.7963488,24.2051296 C60.6113256,24.0547817 63.0229535,20.2897557 65.3903023,16.5009904 L70.1439767,8.93612087 C70.5298372,8.40673826 71.4217442,8.37508609 72.1009535,8.9060513 C72.7176977,9.3792513 73.3186279,9.87144261 73.9076977,10.3747122 C74.5600233,10.9365383 74.7047209,11.7927296 74.246907,12.2714687 C74.2500698,12.2698861 70.9805349,15.3251122 67.8090465,18.4650078 C64.617,21.5922426 61.5617442,24.8310513 61.3783023,24.6814948 L61.3783023,24.6814948 Z" id="Stroke-117" stroke="#1D4898" stroke-width="0.32"></path>
                    <path d="M57.3491442,22.1202009 L56.8399349,21.8377052 C56.6786326,21.7443313 58.016493,18.5514183 59.3393302,15.3442617 L62.0031907,8.94498348 C62.2285395,8.48840087 62.8579349,8.32776609 63.3940279,8.61263565 C63.8787256,8.86506174 64.3547256,9.1317313 64.8291442,9.40077478 C65.3510047,9.70780087 65.5494698,10.3107748 65.2758884,10.7444096 C65.2766791,10.7436183 63.2754233,13.5780704 61.3350512,16.4433835 C59.3828186,19.2984096 57.5072837,22.2175313 57.3491442,22.1202009" id="Fill-119" fill="#BED030"></path>
                    <path d="M64.1395767,27.104073 L63.8217163,26.7543165 C63.7173442,26.6435339 65.5731116,24.5442035 67.4241349,22.4417078 L71.140414,18.2564991 C71.4361349,17.9629252 71.9303209,17.9945774 72.2466,18.3213861 L73.0815767,19.2274296 C73.3820419,19.5700643 73.3693907,20.0622557 73.0515302,20.3289252 L68.6220419,23.7465687 C66.4152047,25.4589513 64.2423674,27.215647 64.1395767,27.104073" id="Fill-121" fill="#88BC28"></path>
                    <path d="M66.8193302,30.3384504 L66.5212372,29.8881983 C66.4271442,29.741807 68.8949116,27.6978678 71.3531907,25.6436417 L76.2855628,21.5549722 C76.6650977,21.2795983 77.2454698,21.4054157 77.5506791,21.8580417 C77.8329581,22.2608157 78.1010047,22.6722939 78.3682605,23.0845635 C78.6584465,23.5458939 78.5580279,24.1164243 78.1508186,24.3561896 C78.1516093,24.3569809 75.3114233,25.8430504 72.5036558,27.373433 C69.6903535,28.8927374 66.9086791,30.4864243 66.8193302,30.3384504" id="Fill-123" fill="#1977B5"></path>
                    <path d="M70.069414,36.6654035 C69.9998326,36.424847 69.9160186,36.1898296 69.8385302,35.951647 C69.7649953,35.7261252 73.8204837,33.8626035 77.8609488,31.9492296 L85.9410884,28.1462209 C86.5570419,27.9064557 87.3145302,28.3669948 87.6062977,29.181247 C87.8688093,29.9139948 88.1139256,30.653073 88.3353209,31.399273 C88.5883442,32.2246035 88.2349023,33.02936 87.5976,33.1820817 C87.5968093,33.1836643 83.2013209,33.9812991 78.8366698,34.9079165 C74.4625302,35.8123774 70.1413674,36.8893426 70.069414,36.6654035" id="Fill-125" fill="#1D4898"></path>
                    <path d="M70.069414,36.6654035 C69.9998326,36.424847 69.9160186,36.1898296 69.8385302,35.951647 C69.7649953,35.7261252 73.8204837,33.8626035 77.8609488,31.9492296 L85.9410884,28.1462209 C86.5570419,27.9064557 87.3145302,28.3669948 87.6062977,29.181247 C87.8688093,29.9139948 88.1139256,30.653073 88.3353209,31.399273 C88.5883442,32.2246035 88.2349023,33.02936 87.5976,33.1820817 C87.5968093,33.1836643 83.2013209,33.9812991 78.8366698,34.9079165 C74.4625302,35.8123774 70.1413674,36.8893426 70.069414,36.6654035 L70.069414,36.6654035 Z" id="Stroke-127" stroke="#1D4898" stroke-width="0.32"></path>
                    <path d="M68.0613581,32.3422704 L67.7854047,31.8287139 C67.6936837,31.6664965 70.5473116,29.6953574 73.3882884,27.7083922 L79.0805209,23.7582009 C79.5209395,23.4923226 80.126614,23.7036009 80.4310326,24.2274443 C80.6982884,24.7038096 80.9631721,25.1817574 81.2122419,25.6676183 C81.4929395,26.2041226 81.3253116,26.8237139 80.8643349,27.03974 C80.8651256,27.0405313 77.6541023,28.3461835 74.4778698,29.7111835 C71.2881953,31.0674791 68.1475442,32.5068617 68.0613581,32.3422704" id="Fill-129" fill="#BED030"></path>
                    <path d="M71.0805581,40.1802983 L70.999907,39.7165939 C70.976186,39.5670374 73.6708837,38.8073852 76.3616279,38.0429852 L81.7494419,36.537133 C82.1511163,36.4516722 82.5646512,36.7420809 82.6445116,37.1915417 C82.7243721,37.595107 82.7931628,38.0002548 82.8572093,38.4069852 C82.933907,38.8556548 82.6405581,39.2647591 82.2333488,39.3161939 L76.6652558,39.7862287 C73.8780465,40.0307417 71.101907,40.3298548 71.0805581,40.1802983" id="Fill-131" fill="#88BC28"></path>
                    <path d="M71.5762465,44.348573 C71.5794093,44.1673643 71.5762465,43.986947 71.5707116,43.8057383 C71.5659674,43.6332339 74.7548512,43.2526165 77.9326651,42.8609209 L84.2898744,42.1012687 C84.7627116,42.0751557 85.1730837,42.4969209 85.1888977,43.0421296 C85.2110372,43.5327383 85.2070837,44.0241383 85.2118279,44.514747 C85.2047116,45.058373 84.814107,45.4840948 84.3412698,45.4643122 L77.9595488,44.9404687 C74.7730372,44.6927904 71.5746651,44.5218687 71.5762465,44.348573" id="Fill-133" fill="#1977B5"></path>
                    <path d="M35.5605209,63.7447878 C34.7279163,63.2882052 33.9364279,62.7738574 33.174986,62.2080748 C36.3417302,64.696727 40.3537302,66.2120748 44.4764279,66.4391791 C48.5983349,66.6892313 52.8198698,65.6296748 56.3495442,63.4646661 C59.8839628,61.3265617 62.7431256,58.1146574 64.4605209,54.431927 C66.1945209,50.7539443 66.8112651,46.6534052 66.366893,42.7665183 C66.322614,41.7868835 65.992893,39.835527 65.7114047,38.8764661 C64.5530326,35.0797878 61.9579628,31.1968574 58.3373581,28.5190835 C54.7396837,25.8064922 50.2690791,24.4430748 46.3203349,24.3758139 C44.3356837,24.3251704 42.6261953,24.7413965 41.4781023,25.1623704 C40.322893,25.5833443 39.6982419,25.9837443 39.6966605,25.9797878 C38.8126605,26.3786052 38.0417302,26.965753 38.9605209,26.7782139 C39.8461023,26.5012574 41.4235442,26.1000661 42.804893,25.9734574 C44.1846605,25.8302313 45.3374977,25.9156922 45.3351256,26.04784 C45.3351256,26.112727 44.428986,26.1135183 43.5236372,26.2068922 C43.5354977,26.3398313 42.8808,26.604127 42.1478233,26.90324 C41.410893,27.1960226 40.6020093,27.5457791 40.1853116,27.66764 C39.7828465,27.8472661 38.3690791,28.4359965 37.0992186,29.2455009 C35.8143349,30.0328487 34.6970791,31.0196052 34.4084744,31.3305878 C33.9285209,31.7602661 33.9901953,31.8409791 34.396614,31.68984 C34.8054047,31.5379096 35.520986,31.1818226 36.4239628,30.81624 C37.3214047,30.4451183 38.3959628,30.0842835 39.4412651,29.8286922 C40.4873581,29.5699357 41.5010326,29.4108835 42.2703814,29.3206748 C43.8138233,29.1948574 42.3217767,29.6451096 42.3723814,29.8508487 C43.8430791,29.5248313 44.6140093,29.6759704 46.1005209,29.643527 C46.0973581,29.6823009 47.2201488,29.7329443 48.5809395,30.0352226 C49.9456837,30.3185096 51.5160093,30.9032835 52.5043814,31.4081357 C52.4877767,31.4318748 53.2515907,31.5933009 55.0630791,32.8949965 C55.6521488,33.34604 55.6869395,33.3056835 55.7328,33.2502922 L55.646614,33.3547443 C56.3234512,33.7132052 57.2928465,34.8653443 57.8068,35.4058052 L57.7032186,35.4928487 C58.7659163,36.5508226 59.4522419,37.9007878 60.1180093,39.2183096 L59.9938698,39.2737009 C60.2982884,39.9463096 60.5331256,40.64424 60.4690791,40.6648139 L60.340986,40.7083357 C60.5315442,41.4094313 60.9806605,42.7989617 60.8312186,42.8298226 L60.9640558,42.8045009 C61.4898698,45.6895965 61.1554047,47.94244 60.5331256,50.0132835 C59.6412186,52.7717704 57.9135442,55.6212574 55.3437767,57.7514487 C52.7993116,59.9093357 49.5013116,61.2498052 46.2381023,61.4610835 C45.5193581,61.4966922 44.7824279,61.6098487 45.5154047,61.7514922 C44.7784744,61.7554487 44.0391721,61.7055965 43.3085674,61.6098487 C41.8552651,61.3677096 42.5392186,61.7150922 41.0906605,61.3590052 C38.1864279,60.6428748 35.4941023,59.0555183 33.446986,56.8406574 C31.3856372,54.6281704 29.9710791,51.8348661 29.4215442,48.8714313 C28.8601488,45.9087878 29.1471721,42.79184 30.2209395,39.9771704 C31.2852186,37.1561704 33.1346605,34.6572313 35.5146605,32.7810487 C34.2922419,33.6783878 33.318893,34.5970922 32.4673116,35.6202487 C31.6236372,36.6489443 30.8954047,37.7876313 30.3174047,39.198527 C30.258893,39.1732052 30.1221023,39.1130661 29.840614,39.833153 C28.9676837,41.9839183 28.6126605,44.528753 28.7431256,46.7467791 C28.8530326,48.9743009 29.4041488,50.844153 29.7061953,51.9780922 C29.9584279,52.7092574 29.9971721,53.5757357 31.3223814,55.56824 C30.8693116,54.9146226 30.4613116,54.231727 30.104707,53.5227183 L29.9236372,53.6145096 C30.6131256,55.0625965 31.6228465,56.5961443 32.8610791,57.9279096 C34.0937767,59.2660052 35.5510326,60.3904487 36.9600558,61.1975791 L36.8620093,61.3756226 C37.3411721,61.639127 37.832986,61.8804748 38.3342884,62.0980835 C39.0245674,62.6108487 37.1759163,62.1297357 34.9841023,60.6610748 C33.8945209,59.9307009 32.7551256,58.9423617 31.8007535,57.871727 C30.8416372,56.8042574 30.0675442,55.6655704 29.5377767,54.7555704 L29.3021488,54.8885096 C29.5836372,55.3854487 29.8872651,55.8689357 30.2114512,56.3389704 L30.1007535,56.415727 C28.6300558,54.286327 27.7041488,52.0516835 27.2020558,49.736327 C26.7078698,47.4185965 26.6303814,45.0011617 27.0858233,42.4523704 C26.9102884,43.2998574 26.7553116,45.022527 26.7845674,45.8866313 C26.7205209,45.8874226 26.6374977,45.8874226 26.6730791,46.7546922 C26.5805674,45.0193617 26.7624279,43.0537617 27.2455442,41.1609617 C27.7199628,39.2649965 28.4988,37.4576574 29.3527535,35.938353 C29.5535907,35.5514052 29.4982419,35.51184 29.2088465,35.8505183 C28.9257767,36.1899878 28.4039163,36.9140313 27.8393581,38.1207704 C27.3119628,39.344127 26.9838233,40.4084313 26.7323814,41.4877704 C26.4864744,42.5686922 26.3204279,43.6709791 26.2603349,45.0011617 L26.1251256,44.9964139 C26.1622884,44.1030313 26.2951256,42.9904574 26.5307535,41.90004 C26.7632186,40.8088313 27.0881953,39.7405704 27.3783814,38.8946661 C27.5064744,38.4649878 27.2961488,38.8622226 27.096893,39.2697443 C26.8968465,39.6756835 26.7189395,40.0958661 26.8225209,39.6543183 C27.1071721,38.7917965 27.4455907,37.9514313 27.7879628,37.105527 C27.1814977,38.3296748 26.6406605,39.8371096 26.2959163,41.3888574 C25.9456372,42.9398139 25.7961953,44.5271704 25.7716837,45.8905878 C25.702893,46.7997965 25.7274047,47.7185009 25.5945674,47.7327443 C26.1203814,52.3262661 27.7848,55.7375791 29.2104279,58.1795443 C29.4389395,58.5926052 30.3071256,59.728127 31.5271721,60.8549443 C32.7369395,61.99284 34.3112186,63.0713878 35.5605209,63.7447878" id="Fill-135" fill="#88BC28"></path>
                    <path d="M34.3648279,62.9674104 C35.157107,63.5442713 36.8855721,64.5049148 37.8083163,64.8855322 C41.4953395,66.3502365 46.1462233,66.7490539 50.4974326,65.5913757 C51.5095256,65.3326191 52.4915721,64.9860278 53.4364558,64.5745496 C53.4301302,64.5666365 53.4261767,64.5587235 53.4214326,64.5500191 C53.0371535,64.445567 53.1217581,63.7935322 53.5858977,63.787993 C53.5961767,63.7887843 53.6080372,63.787993 53.6198977,63.7864104 C53.9852,63.2720626 54.2840837,62.7292278 54.5062698,62.1634452 C54.4382698,62.1120104 54.3884558,62.0447496 54.3678977,61.9664104 C53.9156186,62.0566191 53.4578047,62.1151757 52.983386,62.0930191 C52.7224558,62.0811496 52.5619442,61.7725409 52.6552465,61.5462278 C52.4654791,61.3895496 52.4583628,61.005767 52.7161302,60.8538365 C52.8972,60.7478017 53.0822233,60.6583843 53.2625023,60.55868 C53.1636651,60.4740104 53.0616651,60.3917148 52.9667814,60.3015061 C52.9501767,60.2888452 52.9327814,60.277767 52.9177581,60.2627322 C52.4180372,60.01268 51.9278047,59.7729148 51.7040372,59.3258278 C51.4004093,59.4959583 50.6618977,59.8686626 49.1287349,60.2999235 C48.4076186,60.477967 48.4178977,60.530193 48.4329209,60.6014104 L48.4060372,60.4684713 C47.703107,60.7739148 46.1984093,60.8111061 45.4543628,60.8752017 L45.4519907,60.74068 C43.9638977,60.9100191 42.4805488,60.602993 41.0367349,60.2999235 L41.0699442,60.168567 C40.3559442,59.9857757 39.6648744,59.7333496 39.6878047,59.6700452 L39.7344558,59.5442278 C39.0678977,59.2538191 37.7039442,58.7378887 37.7727349,58.600993 L37.7086884,58.7220626 C35.131014,57.3317409 33.5820372,55.6605061 32.3548744,53.8816539 C30.7584558,51.4610539 29.6143163,48.3314452 29.5565953,44.9921409 C29.4625023,41.6560017 30.4777581,38.2407322 32.3493395,35.5590017 C32.7699907,34.9750191 33.1439907,34.3285235 32.5738977,34.8128017 C33.0309209,34.2343583 33.5322233,33.687567 34.0643628,33.1771757 C35.1602698,32.1920017 34.4628744,32.5101061 35.6441767,31.6001061 C38.0178512,29.7769409 40.9378977,28.664367 43.9449209,28.4499235 C46.9590605,28.2196539 50.023014,28.8582365 52.677386,30.281793 C55.3404558,31.6918974 57.5939442,33.8632365 59.1192,36.4602974 C60.6555256,39.0549843 61.4509674,42.0603583 61.4272465,45.0934278 C61.491293,43.5772887 61.3821767,42.2447322 61.1157116,40.9382887 C60.8405488,39.636593 60.4064558,38.3570539 59.6655721,37.0229148 C59.7225023,36.9928452 59.8553395,36.9240017 59.4694791,36.2529757 C58.3364093,34.2288191 56.5715721,32.3621322 54.759293,31.0794278 C52.9533395,29.7729843 51.1505488,29.0346974 50.0759907,28.56308 C49.3485488,28.3035322 48.6472,27.7931409 46.2656186,27.5834452 C47.0594791,27.6388365 47.8462233,27.7448713 48.6226884,27.9094626 L48.6638047,27.7116365 C47.1021767,27.3444713 45.2756651,27.1759235 43.4625953,27.3120278 C41.6487349,27.4394278 39.8609674,27.8762278 38.3523163,28.47208 L38.2732465,28.2853322 C37.7695721,28.4950278 37.2738047,28.7276713 36.7883163,28.9848452 C35.9580837,29.2040365 37.4896651,28.0606017 40.0040837,27.262967 C41.2557581,26.8688974 42.7375256,26.5966887 44.1694791,26.5175583 C45.6014326,26.4360539 46.973293,26.5412974 48.0162233,26.696393 L48.0565488,26.4305148 C47.4943628,26.3387235 46.9266419,26.2730452 46.3573395,26.2342713 L46.3676186,26.0997496 C48.9476651,26.280167 51.2691535,26.9527757 53.3905953,28.006793 C54.9498512,28.7878104 56.4086884,29.78248 57.7520837,31.030367 C57.3488279,30.6544974 56.951107,30.3055322 56.6545953,30.083967 C56.6854326,30.0459843 56.721014,30.00088 56.4442698,29.7650713 C57.7228279,30.7407496 58.9903163,31.9830974 60.0538047,33.3971583 C61.2374791,34.9520713 62.161014,36.6897757 62.8133395,38.3056191 C62.9904558,38.7036452 63.055293,38.6854452 62.9730605,38.2478539 C62.8821302,37.8142191 62.6457116,36.9540713 62.0558512,35.7592017 C61.4296186,34.5833235 60.8041767,33.6622452 60.1202233,32.7910191 C59.4299442,31.9245409 58.6732465,31.1063322 57.673014,30.227193 L57.7607814,30.1266974 C58.4352465,30.7122626 59.2212,31.51148 59.9233395,32.3763757 C60.6302233,33.2396887 61.2604093,34.1599757 61.7387814,34.91488 C61.9949674,35.2852104 61.8162698,34.8729409 61.6241302,34.4614626 C61.4304093,34.051567 61.2145488,33.6495843 61.4944558,34.0080452 C61.9902233,34.7684887 62.433014,35.5574191 62.8805488,36.35268 C62.3033395,35.11508 61.4644093,33.7508713 60.4697116,32.51248 C59.4789674,31.2701322 58.3332465,30.1607235 57.2839907,29.2894974 C56.6174326,28.6691148 55.8844558,28.1144104 55.9572,28.0012539 C52.0448279,25.5426713 48.3427814,24.7133843 45.5476651,24.3026974 C45.0819442,24.2219843 43.6539442,24.1919148 42.0132465,24.4411757 C41.0849674,24.5733235 40.1029209,24.8091322 39.1865023,25.0884626 C35.5445488,26.1005409 32.1437581,28.1880017 29.5668744,31.0723061 C26.7970605,34.1378191 24.9863628,38.0990887 24.4700372,42.2091235 C23.9315721,46.3072887 24.6518977,50.5478887 26.4523163,54.1902626 C28.239293,57.8429235 31.0541767,60.8870713 34.3648279,62.9674104" id="Fill-137" fill="#1D4898"></path>
                    <path d="M30.3001674,50.0260235 C30.6836558,51.2984409 31.2260744,52.5368322 32.0768651,53.8029191 C32.0230977,53.8377365 31.896586,53.9184496 32.3377953,54.553867 C33.6377023,56.4743626 35.5551442,58.1843713 37.470214,59.3072322 C39.3797488,60.4562061 41.2402605,61.0386061 42.3496093,61.4160583 C43.0968186,61.6138843 43.838493,62.0633452 46.2303535,62.0696757 C45.4349116,62.0823365 44.6418419,62.0435626 43.854307,61.9454409 L43.8290047,62.1448496 C45.4159349,62.3782843 47.2519349,62.3909452 49.0460279,62.1021191 C50.8417023,61.8188322 52.5867721,61.233267 54.0400744,60.5115974 L54.1341674,60.6896409 C54.6180744,60.4387974 55.092493,60.1650061 55.5534698,59.8674757 C56.3631442,59.5778583 54.9335628,60.848693 52.4958419,61.8560235 C51.2829116,62.3553365 49.8296093,62.7525713 48.4087256,62.95198 C46.9886326,63.1561365 45.6136093,63.1680061 44.5611907,63.1015365 L44.5430047,63.3697887 C45.1107256,63.4141017 45.6831907,63.4307191 46.2532837,63.4212235 L46.2556558,63.5565365 C43.6677023,63.5961017 41.2979814,63.123693 39.0950977,62.2532583 C37.4749581,61.6075539 35.9378419,60.7402843 34.4932372,59.6118843 C34.9249581,59.9521452 35.3519349,60.2655017 35.6658419,60.4609539 C35.6397488,60.5021017 35.6073302,60.5503713 35.9030512,60.7608583 C34.546214,59.8967539 33.1775163,58.7675626 31.9970047,57.4492496 C30.6860279,56.0003713 29.6193767,54.3481278 28.8318419,52.7924235 C28.6215163,52.4110148 28.5590512,52.4347539 28.6784465,52.8644322 C28.8041674,53.2885713 29.1141209,54.1257713 29.8036093,55.2660409 C30.5270977,56.3841539 31.2284465,57.2490496 31.9835628,58.0585539 C32.7450047,58.8633104 33.5681209,59.6142583 34.6395163,60.4047713 L34.5604465,60.51318 C33.8393302,59.9861713 32.9885395,59.2565887 32.2144465,58.4542061 C31.4371907,57.6549887 30.7318884,56.7916757 30.1902605,56.0795017 C29.9032372,55.7329104 30.1167256,56.1285626 30.3444465,56.5226322 C30.570586,56.9151191 30.8204465,57.2965278 30.5112837,56.9633887 C29.9530512,56.2472583 29.4438419,55.4986843 28.9306791,54.7445713 C29.6114698,55.9291539 30.5618884,57.2158148 31.6593767,58.3663713 C32.7529116,59.520093 33.9871907,60.5274235 35.1060279,61.306067 C35.8231907,61.8671017 36.6004465,62.3585017 36.5387721,62.4764061 C40.6448651,64.5939365 44.4046326,65.1059104 47.2242605,65.2768322 C47.6947256,65.31798 49.1211442,65.22698 50.7341674,64.8384496 C51.6474233,64.6279626 52.6057488,64.309067 53.4952837,63.9537713 C57.0376093,62.6354583 60.2494233,60.2655017 62.572493,57.172293 C64.8410047,54.1890757 66.2468651,50.5364148 66.6137488,46.7943365 C65.7084,48.4671539 62.7701674,48.7045452 62.1336558,46.3330061 C62.0387721,45.9191539 61.9344,45.5068843 61.8252837,45.0961974 C61.7130047,45.1373452 61.5967721,45.1666235 61.4797488,45.1935278 C61.4560279,47.9116583 60.7475628,50.6416583 59.4184,52.9396061 C59.0483535,53.5568235 58.7312837,54.2318061 59.2578884,53.7024235 C58.8522605,54.317267 58.3984,54.9044148 57.9121209,55.4591191 C56.9039814,56.5337104 57.5713302,56.1562583 56.4722605,57.16438 C54.2622605,59.1822061 51.446586,60.539293 48.4688186,61.0085365 C45.4855163,61.4943974 42.3780744,61.1193191 39.6114233,59.9260322 C36.8392372,58.74778 34.4086326,56.774267 32.6690977,54.317267 C30.9177023,51.8626409 29.8700279,48.9363974 29.6359814,45.9112409 C29.7016093,47.4281713 29.9230047,48.7464843 30.3001674,50.0260235" id="Fill-139" fill="#88BC28"></path>
                    <path d="M65.0676977,37.7507565 C66.2118372,40.6105304 66.3051395,44.142913 66.6143023,47.1538261 C66.6396047,47.3658957 66.6641163,47.5795478 66.6878372,47.7924087 C67.1859767,44.0076 66.6372326,40.1017217 65.1301628,36.6619217 C65.025,36.4197826 64.9087674,36.1839739 64.7933256,35.9465826 C64.8787209,36.5487652 64.9688605,37.1501565 65.0676977,37.7507565" id="Fill-141" fill="#88BC28"></path>
                </g>
            </g>
        </g>
    </g>
</svg>